<?xml version="1.0" encoding="UTF-8"?>
<svg id="_레이어_1" data-name="레이어 1" xmlns="http://www.w3.org/2000/svg" viewBox="0 0 1031.49 1053.87">
  <defs>
    <style>
      .cls-1 {
        fill: #003051;
      }

      .cls-2 {
        fill: none;
        stroke: #fff;
        stroke-miterlimit: 10;
        stroke-width: 3px;
      }

      .cls-3 {
        fill: #95c8d9;
      }

      .cls-4 {
        fill: #4981b0;
      }
    </style>
  </defs>
  <path class="cls-4" d="M853.66,384.08c2.08-3.5,2.04-9.2-.09-12.67L629.76,7.8c-2.14-3.47-7.21-6.3-11.29-6.3h-198.73c-4.07,0-9.23,2.79-11.46,6.19l-60.41,92.33c-2.23,3.41-4.22,6.19-4.42,6.19s-2.2,2.79-4.42,6.2l-101.39,154.96c-2.23,3.41-.72,6.19,3.35,6.19h208.69c4.07,0,9.14,2.84,11.27,6.32l225.81,368.84c2.12,3.47,5.57,3.45,7.66-.05l58.14-97.64c2.09-3.5,3.98-6.05,4.21-5.67.23.38,2.13-2.17,4.21-5.67l92.68-155.63Z"/>
  <path class="cls-2" d="M853.66,384.08c2.08-3.5,2.04-9.2-.09-12.67L629.76,7.8c-2.14-3.47-7.21-6.3-11.29-6.3h-198.73c-4.07,0-9.23,2.79-11.46,6.19l-60.41,92.33c-2.23,3.41-4.22,6.19-4.42,6.19s-2.2,2.79-4.42,6.2l-101.39,154.96c-2.23,3.41-.72,6.19,3.35,6.19h208.69c4.07,0,9.14,2.84,11.27,6.32l225.81,368.84c2.12,3.47,5.57,3.45,7.66-.05l58.14-97.64c2.09-3.5,3.98-6.05,4.21-5.67.23.38,2.13-2.17,4.21-5.67l92.68-155.63Z"/>
  <path class="cls-1" d="M556.77,176.8c-2.25-3.4-7.42-6.17-11.49-6.16l-426.96,1.13c-4.07.01-9.14,2.86-11.27,6.34L3.32,347.63c-2.12,3.47-2.44,9.33-.69,13.01l47.23,99.72c1.74,3.68,3.08,6.83,2.98,7-.11.17,1.23,3.33,2.98,7.01l79.26,167.35c1.74,3.68,4.91,3.85,7.03.38l108.92-178.01c2.12-3.47,7.2-6.35,11.27-6.39l468.5-4.41c4.07-.04,5.59-2.87,3.38-6.28l-59.58-91.91c-2.21-3.42-5.86-8.99-8.11-12.39l-109.72-165.92Z"/>
  <path class="cls-2" d="M556.77,176.8c-2.25-3.4-7.42-6.17-11.49-6.16l-426.96,1.13c-4.07.01-9.14,2.86-11.27,6.34L3.32,347.63c-2.12,3.47-2.44,9.33-.69,13.01l47.23,99.72c1.74,3.68,3.08,6.83,2.98,7-.11.17,1.23,3.33,2.98,7.01l79.26,167.35c1.74,3.68,4.91,3.85,7.03.38l108.92-178.01c2.12-3.47,7.2-6.35,11.27-6.39l468.5-4.41c4.07-.04,5.59-2.87,3.38-6.28l-59.58-91.91c-2.21-3.42-5.86-8.99-8.11-12.39l-109.72-165.92Z"/>
  <path class="cls-3" d="M240.99,303.05c-4.07-.03-9.11,2.81-11.2,6.31L3.26,688.45c-2.09,3.5-2.09,9.22,0,12.71l101.97,170.58c2.09,3.49,7.13,6.35,11.2,6.35h139.48c4.07-.01,10.74,0,14.81,0l156.15.33c4.07,0,5.6-2.79,3.4-6.21l-106.67-165.89c-2.2-3.42-2.46-9.18-.57-12.79l200.72-383.07c1.89-3.61.1-6.55-3.97-6.55l-113.64.2c-4.07,0-10.73-.01-14.81-.04l-150.34-1.01Z"/>
  <path class="cls-2" d="M240.99,303.05c-4.07-.03-9.11,2.81-11.2,6.31L3.26,688.45c-2.09,3.5-2.09,9.22,0,12.71l101.97,170.58c2.09,3.49,7.13,6.35,11.2,6.35h139.48c4.07-.01,10.74,0,14.81,0l156.15.33c4.07,0,5.6-2.79,3.4-6.21l-106.67-165.89c-2.2-3.42-2.46-9.18-.57-12.79l200.72-383.07c1.89-3.61.1-6.55-3.97-6.55l-113.64.2c-4.07,0-10.73-.01-14.81-.04l-150.34-1.01Z"/>
  <path class="cls-4" d="M183.97,669.79c-2.08,3.5-2.04,9.2.09,12.66l223.81,363.61c2.13,3.47,7.21,6.31,11.29,6.31h198.73c4.08,0,9.23-2.79,11.46-6.2l60.41-92.33c2.23-3.41,4.22-6.2,4.42-6.2s2.19-2.79,4.42-6.19l101.39-154.96c2.23-3.41.72-6.19-3.35-6.19h-208.69c-4.07,0-9.14-2.84-11.27-6.32l-225.81-368.84c-2.13-3.47-5.6-3.47-7.73,0l-58.85,96.33c-2.12,3.47-5.56,9.18-7.65,12.68l-92.68,155.63Z"/>
  <path class="cls-2" d="M183.97,669.79c-2.08,3.5-2.04,9.2.09,12.66l223.81,363.61c2.13,3.47,7.21,6.31,11.29,6.31h198.73c4.08,0,9.23-2.79,11.46-6.2l60.41-92.33c2.23-3.41,4.22-6.2,4.42-6.2s2.19-2.79,4.42-6.19l101.39-154.96c2.23-3.41.72-6.19-3.35-6.19h-208.69c-4.07,0-9.14-2.84-11.27-6.32l-225.81-368.84c-2.13-3.47-5.6-3.47-7.73,0l-58.85,96.33c-2.12,3.47-5.56,9.18-7.65,12.68l-92.68,155.63Z"/>
  <path class="cls-1" d="M474.72,873.52c2.25,3.4,7.42,6.17,11.49,6.16l426.96-1.13c4.07-.01,9.14-2.86,11.27-6.34l103.73-169.52c2.12-3.47,2.44-9.33.69-13.01l-47.23-99.72c-1.74-3.68-3.08-6.83-2.98-7,.11-.17-1.24-3.33-2.98-7.01l-79.26-167.36c-1.74-3.68-4.91-3.85-7.03-.38l-108.92,178.01c-2.13,3.47-7.2,6.35-11.27,6.39l-468.5,4.41c-4.07.04-5.59,2.86-3.38,6.28l59.58,91.91c2.22,3.41,5.87,8.99,8.11,12.39l109.72,165.92Z"/>
  <path class="cls-2" d="M474.72,873.52c2.25,3.4,7.42,6.17,11.49,6.16l426.96-1.13c4.07-.01,9.14-2.86,11.27-6.34l103.73-169.52c2.12-3.47,2.44-9.33.69-13.01l-47.23-99.72c-1.74-3.68-3.08-6.83-2.98-7,.11-.17-1.24-3.33-2.98-7.01l-79.26-167.36c-1.74-3.68-4.91-3.85-7.03-.38l-108.92,178.01c-2.13,3.47-7.2,6.35-11.27,6.39l-468.5,4.41c-4.07.04-5.59,2.86-3.38,6.28l59.58,91.91c2.22,3.41,5.87,8.99,8.11,12.39l109.72,165.92Z"/>
  <path class="cls-3" d="M790.5,747.27c4.07.03,9.11-2.81,11.21-6.31l226.53-379.09c2.09-3.49,2.09-9.21,0-12.71l-101.97-170.58c-2.09-3.5-7.13-6.35-11.2-6.35l-139.48.02c-4.07,0-10.73,0-14.81-.01l-156.15-.32c-4.07,0-5.6,2.79-3.4,6.21l106.67,165.89c2.2,3.42,2.46,9.18.57,12.79l-200.72,383.07c-1.89,3.61-.1,6.55,3.97,6.55l113.64-.2c4.07,0,10.74.01,14.81.04l150.34,1.01Z"/>
  <path class="cls-2" d="M790.5,747.27c4.07.03,9.11-2.81,11.21-6.31l226.53-379.09c2.09-3.49,2.09-9.21,0-12.71l-101.97-170.58c-2.09-3.5-7.13-6.35-11.2-6.35l-139.48.02c-4.07,0-10.73,0-14.81-.01l-156.15-.32c-4.07,0-5.6,2.79-3.4,6.21l106.67,165.89c2.2,3.42,2.46,9.18.57,12.79l-200.72,383.07c-1.89,3.61-.1,6.55,3.97,6.55l113.64-.2c4.07,0,10.74.01,14.81.04l150.34,1.01Z"/>
</svg>